<svg width="121" height="26" viewBox="0 0 121 26" fill="none" xmlns="http://www.w3.org/2000/svg">
<path d="M10.22 7.2V17H8.932V9.342L5.726 14.676H5.558L2.352 9.356V17H1.05V7.2H2.52L5.642 12.38L8.75 7.2H10.22ZM18.0976 16.118C17.379 16.8273 16.5063 17.182 15.4796 17.182C14.453 17.182 13.5803 16.8273 12.8616 16.118C12.1523 15.4087 11.7976 14.536 11.7976 13.5C11.7976 12.464 12.1523 11.5913 12.8616 10.882C13.5803 10.1727 14.453 9.818 15.4796 9.818C16.5063 9.818 17.379 10.1727 18.0976 10.882C18.8163 11.5913 19.1756 12.464 19.1756 13.5C19.1756 14.536 18.8163 15.4087 18.0976 16.118ZM15.4796 15.992C16.1796 15.992 16.7676 15.754 17.2436 15.278C17.7196 14.802 17.9576 14.2093 17.9576 13.5C17.9576 12.7907 17.7196 12.198 17.2436 11.722C16.7676 11.246 16.1796 11.008 15.4796 11.008C14.789 11.008 14.2056 11.246 13.7296 11.722C13.2536 12.198 13.0156 12.7907 13.0156 13.5C13.0156 14.2093 13.2536 14.802 13.7296 15.278C14.2056 15.754 14.789 15.992 15.4796 15.992ZM21.8295 11.176C22.2308 10.308 22.9588 9.874 24.0135 9.874V11.148C23.4162 11.12 22.9028 11.2787 22.4735 11.624C22.0442 11.9693 21.8295 12.5247 21.8295 13.29V17H20.6115V10H21.8295V11.176ZM25.6764 14.06C25.7978 14.6853 26.0824 15.1707 26.5304 15.516C26.9878 15.8613 27.5478 16.034 28.2104 16.034C29.1344 16.034 29.8064 15.6933 30.2264 15.012L31.2624 15.6C30.5811 16.6547 29.5544 17.182 28.1824 17.182C27.0718 17.182 26.1664 16.8367 25.4664 16.146C24.7758 15.446 24.4304 14.564 24.4304 13.5C24.4304 12.4453 24.7711 11.568 25.4524 10.868C26.1338 10.168 27.0158 9.818 28.0984 9.818C29.1251 9.818 29.9604 10.182 30.6044 10.91C31.2578 11.6287 31.5844 12.4967 31.5844 13.514C31.5844 13.6913 31.5704 13.8733 31.5424 14.06H25.6764ZM28.0984 10.966C27.4451 10.966 26.9038 11.1527 26.4744 11.526C26.0451 11.89 25.7791 12.38 25.6764 12.996H30.3524C30.2498 12.3333 29.9884 11.8293 29.5684 11.484C29.1484 11.1387 28.6584 10.966 28.0984 10.966ZM36.6105 7.2H37.9125V17H36.6105V7.2ZM43.3748 9.818C44.1962 9.818 44.8542 10.0793 45.3488 10.602C45.8435 11.1153 46.0908 11.8153 46.0908 12.702V17H44.8728V12.772C44.8728 12.2027 44.7188 11.764 44.4108 11.456C44.1028 11.1387 43.6782 10.98 43.1368 10.98C42.5302 10.98 42.0402 11.1713 41.6668 11.554C41.2935 11.9273 41.1068 12.506 41.1068 13.29V17H39.8888V10H41.1068V11.008C41.6015 10.2147 42.3575 9.818 43.3748 9.818ZM51.3892 8.194C50.1572 8.09133 49.5412 8.62333 49.5412 9.79V10H51.3892V11.176H49.5412V17H48.3232V11.176H47.2032V10H48.3232V9.79C48.3232 8.84733 48.5845 8.13333 49.1072 7.648C49.6392 7.16267 50.3999 6.95267 51.3892 7.018V8.194ZM57.8418 16.118C57.1231 16.8273 56.2504 17.182 55.2238 17.182C54.1971 17.182 53.3244 16.8273 52.6058 16.118C51.8964 15.4087 51.5418 14.536 51.5418 13.5C51.5418 12.464 51.8964 11.5913 52.6058 10.882C53.3244 10.1727 54.1971 9.818 55.2238 9.818C56.2504 9.818 57.1231 10.1727 57.8418 10.882C58.5604 11.5913 58.9198 12.464 58.9198 13.5C58.9198 14.536 58.5604 15.4087 57.8418 16.118ZM55.2238 15.992C55.9238 15.992 56.5118 15.754 56.9878 15.278C57.4638 14.802 57.7018 14.2093 57.7018 13.5C57.7018 12.7907 57.4638 12.198 56.9878 11.722C56.5118 11.246 55.9238 11.008 55.2238 11.008C54.5331 11.008 53.9498 11.246 53.4738 11.722C52.9978 12.198 52.7598 12.7907 52.7598 13.5C52.7598 14.2093 52.9978 14.802 53.4738 15.278C53.9498 15.754 54.5331 15.992 55.2238 15.992Z" fill="#E58411"/>
<path d="M77.5 13.4002H115M115 13.4002C115 13.4002 110.512 10.4487 109.6 8.00024M115 13.4002C115 13.4002 111.032 16.1736 109.6 18.8002" stroke="#E58411" stroke-linecap="square"/>
</svg>
