<svg width="226" height="50" viewBox="0 0 226 50" fill="none" xmlns="http://www.w3.org/2000/svg">
<path d="M15.4964 34.0249H26.1287V31.6773H19.3737V31.5713L22.0469 28.8527C25.0609 25.9598 25.8939 24.5513 25.8939 22.802C25.8939 20.2045 23.7811 18.3037 20.6611 18.3037C17.5865 18.3037 15.4055 20.2121 15.4055 23.1579H18.0788C18.0788 21.5752 19.0784 20.5831 20.6232 20.5831C22.0999 20.5831 23.198 21.4843 23.198 22.9459C23.198 24.2408 22.4104 25.1647 20.8807 26.7171L15.4964 31.9954V34.0249ZM34.1256 18.3037C30.7632 18.281 28.5293 20.5907 28.5293 23.6198C28.5368 26.543 30.6194 28.6558 33.338 28.6558C35.0116 28.6558 36.4656 27.8455 37.2153 26.5127H37.3213C37.3137 29.8296 36.1096 31.8061 33.9665 31.8061C32.6262 31.8061 31.725 31.0336 31.4448 29.7993H28.6807C28.9988 32.3665 31.0283 34.2369 33.9665 34.2369C37.6848 34.2369 40.0551 31.1321 40.0475 25.7932C40.0399 20.1439 37.1017 18.3189 34.1256 18.3037ZM34.1331 20.5756C35.7916 20.5756 37.0108 21.9538 37.0108 23.5365C37.0184 25.142 35.7386 26.5202 34.1029 26.5202C32.452 26.5202 31.263 25.2177 31.2555 23.5593C31.2555 21.8932 32.4898 20.5756 34.1331 20.5756ZM47.9536 18.3037C44.5912 18.281 42.3572 20.5907 42.3572 23.6198C42.3648 26.543 44.4473 28.6558 47.166 28.6558C48.8396 28.6558 50.2936 27.8455 51.0433 26.5127H51.1493C51.1417 29.8296 49.9376 31.8061 47.7945 31.8061C46.4541 31.8061 45.553 31.0336 45.2728 29.7993H42.5087C42.8267 32.3665 44.8563 34.2369 47.7945 34.2369C51.5128 34.2369 53.8831 31.1321 53.8755 25.7932C53.8679 20.1439 50.9297 18.3189 47.9536 18.3037ZM47.9611 20.5756C49.6196 20.5756 50.8388 21.9538 50.8388 23.5365C50.8464 25.142 49.5666 26.5202 47.9308 26.5202C46.28 26.5202 45.091 25.2177 45.0834 23.5593C45.0834 21.8932 46.3178 20.5756 47.9611 20.5756Z" fill="#0D1B39"/>
<path d="M4.79699 29.4096H5.94373L5.94914 28.1709C8.26967 28.0033 9.60032 26.7267 9.60573 24.9146C9.60032 22.9944 8.01544 22.1181 6.34941 21.7232L5.99241 21.6313L6.01405 18.5426C6.87951 18.6941 7.43666 19.2134 7.5232 19.9923H9.45427C9.42182 18.2722 8.06953 17.0173 6.02487 16.8225L6.03027 15.5622H4.88353L4.87812 16.8225C2.84969 17.0281 1.38921 18.2722 1.39462 20.0626C1.39462 21.6529 2.52514 22.5671 4.34803 23.0377L4.83485 23.1621L4.81321 26.4346C3.84497 26.2832 3.14719 25.7314 3.07687 24.7524H1.10253C1.17826 26.7808 2.57382 27.987 4.80239 28.1709L4.79699 29.4096ZM5.95996 26.4346L5.98159 23.465C6.96606 23.7517 7.59352 24.1303 7.59893 24.8984C7.59352 25.699 6.94983 26.2723 5.95996 26.4346ZM4.84567 21.3392C4.0992 21.1012 3.41765 20.7063 3.42847 19.9382C3.43388 19.2404 3.95857 18.6995 4.86731 18.5426L4.84567 21.3392Z" fill="#0D1B39"/>
<rect x="177.105" y="0.838867" width="48.743" height="48.743" rx="24.3715" fill="#0D1B39"/>
<path d="M211.227 25.2102C211.227 24.4411 210.603 23.8176 209.834 23.8176H202.871V16.8543C202.871 16.0851 202.248 15.4616 201.478 15.4616C200.709 15.4616 200.086 16.0851 200.086 16.8543V23.8176H193.122C192.353 23.8176 191.73 24.4411 191.73 25.2102C191.73 25.9794 192.353 26.6029 193.122 26.6029H200.086V33.5662C200.086 34.3353 200.709 34.9588 201.478 34.9588C202.248 34.9588 202.871 34.3353 202.871 33.5662V26.6029H209.834C210.603 26.6029 211.227 25.9794 211.227 25.2102Z" fill="white"/>
</svg>
