<svg width="19" height="19" viewBox="0 0 19 19" fill="none" xmlns="http://www.w3.org/2000/svg">
<path d="M14.1172 10.9091C13.92 11.1003 13.8293 11.3767 13.8743 11.6479L14.5513 15.395C14.6085 15.7126 14.4744 16.034 14.2086 16.2176C13.9481 16.408 13.6016 16.4308 13.3175 16.2785L9.94436 14.5192C9.82707 14.4567 9.69684 14.4232 9.56356 14.4194H9.35716C9.28557 14.4301 9.2155 14.4529 9.15153 14.488L5.7776 16.2557C5.61081 16.3394 5.42193 16.3691 5.23685 16.3394C4.78598 16.2541 4.48515 15.8246 4.55902 15.3714L5.23685 11.6243C5.28179 11.3509 5.19116 11.0729 4.9939 10.8786L2.24373 8.21299C2.01372 7.98983 1.93376 7.65472 2.03886 7.35236C2.14091 7.05076 2.40138 6.83065 2.71593 6.78115L6.50113 6.23202C6.78901 6.20232 7.04187 6.02715 7.17134 5.7682L8.83927 2.34854C8.87887 2.27238 8.9299 2.20231 8.99159 2.1429L9.06013 2.08959C9.09593 2.04998 9.13706 2.01723 9.18275 1.99058L9.26577 1.96011L9.39524 1.9068H9.71588C10.0022 1.9365 10.2543 2.10787 10.3861 2.36377L12.0761 5.7682C12.198 6.01725 12.4348 6.19013 12.7082 6.23202L16.4934 6.78115C16.8133 6.82685 17.0806 7.04771 17.1865 7.35236C17.2863 7.65777 17.2002 7.99288 16.9656 8.21299L14.1172 10.9091Z" fill="#F6B76F"/>
</svg>
